<svg width="300" height="300" viewBox="0 0 300 300" fill="none" xmlns="http://www.w3.org/2000/svg">
<path d="M282.406 18.7793C253.865 20.6015 197.135 27.2343 162.115 51.3515C159.698 53.0156 158.328 55.9746 158.328 59.0683V272.273C158.328 279.041 164.906 283.318 170.453 280.178C206.484 259.775 258.594 254.209 284.359 252.686C293.156 252.164 299.995 244.23 299.995 234.721V36.7675C300 26.3906 292 18.1699 282.406 18.7793ZM137.88 51.3515C102.865 27.2343 46.1354 20.6074 17.5937 18.7793C8 18.1699 0 26.3906 0 36.7675V234.727C0 244.242 6.83854 252.176 15.6354 252.691C41.4115 254.215 93.5469 259.787 129.578 280.201C135.109 283.336 141.667 279.064 141.667 272.314V58.9629C141.667 55.8632 140.302 53.0214 137.88 51.3515Z" fill="#548BCD"/>
</svg>
