<svg width="50" height="50" viewBox="0 0 50 50" fill="none" xmlns="http://www.w3.org/2000/svg">
<path d="M20.8335 16.6665V29.1665L30.6252 35.2082L32.2918 32.7082L23.9585 27.7082V16.6665H20.8335Z" fill="#545454"/>
<path d="M37.1462 26.6666C37.498 28.9858 37.3429 31.3536 36.6917 33.6071C36.0405 35.8606 34.9086 37.9462 33.374 39.7203C31.8395 41.4944 29.9386 42.9148 27.8024 43.8838C25.6662 44.8527 23.3454 45.3472 20.9998 45.3332C11.8999 45.3332 4.66661 38.0999 4.66661 28.9999C4.66661 19.8999 11.8999 12.6666 20.9998 12.6666C22.6331 12.6666 24.1964 12.9 25.6664 13.3433V8.53666C24.1731 8.18667 22.6097 8 20.9998 8C9.33323 8 0 17.3333 0 28.9999C0 40.6665 9.33323 49.9998 20.9998 49.9998C23.9577 50.0121 26.8845 49.3968 29.5871 48.1945C32.2896 46.9922 34.7064 45.2303 36.6778 43.0251C38.6492 40.8199 40.1305 38.2216 41.0237 35.4018C41.9169 32.5819 42.2018 29.6047 41.8595 26.6666H37.1462V26.6666Z" fill="#545454"/>
<path d="M41.6667 10.4165V4.1665H37.5V10.4165H31.25V14.5832H37.5V20.8332H41.6667V14.5832H47.9167V10.4165H41.6667Z" fill="#545454"/>
</svg>
