<svg width="50" height="50" viewBox="0 0 50 50" fill="none" xmlns="http://www.w3.org/2000/svg">
<path d="M45.4286 8H34.1929C31.7817 8 29.4246 8.84287 27.3964 10.433L25 12.304L22.6036 10.433C20.5775 8.84318 18.2177 7.99843 15.8071 8H4.57143C3.70223 8 3 8.85483 3 9.9129V43.8668C3 44.9249 3.70223 45.7797 4.57143 45.7797H15.8071C18.2183 45.7797 20.5754 46.6225 22.6036 48.2126L24.7839 49.9223C24.8478 49.9701 24.9214 50 24.9951 50C25.0687 50 25.1424 49.9761 25.2063 49.9223L27.3866 48.2126C29.4196 46.6225 31.7817 45.7797 34.1929 45.7797H45.4286C46.2978 45.7797 47 44.9249 47 43.8668V9.9129C47 8.85483 46.2978 8 45.4286 8ZM15.8071 41.4757H6.53571V12.304H15.8071C17.5455 12.304 19.2348 12.9078 20.6933 14.0495L23.0897 15.9206L23.4286 16.1896V43.807C21.0911 42.2767 18.4786 41.4757 15.8071 41.4757ZM43.4643 41.4757H34.1929C31.5214 41.4757 28.9089 42.2767 26.5714 43.807V16.1896L26.9103 15.9206L29.3067 14.0495C30.7652 12.9078 32.4545 12.304 34.1929 12.304H43.4643V41.4757ZM19.3478 19.9556H10.2237C10.0321 19.9556 9.875 20.1588 9.875 20.4039V23.0939C9.875 23.339 10.0321 23.5423 10.2237 23.5423H19.3429C19.5344 23.5423 19.6915 23.339 19.6915 23.0939V20.4039C19.6964 20.1588 19.5393 19.9556 19.3478 19.9556ZM30.3036 20.4039V23.0939C30.3036 23.339 30.4607 23.5423 30.6522 23.5423H39.7714C39.9629 23.5423 40.1201 23.339 40.1201 23.0939V20.4039C40.1201 20.1588 39.9629 19.9556 39.7714 19.9556H30.6522C30.4607 19.9556 30.3036 20.1588 30.3036 20.4039ZM19.3478 28.3245H10.2237C10.0321 28.3245 9.875 28.5278 9.875 28.7728V31.4629C9.875 31.7079 10.0321 31.9112 10.2237 31.9112H19.3429C19.5344 31.9112 19.6915 31.7079 19.6915 31.4629V28.7728C19.6964 28.5278 19.5393 28.3245 19.3478 28.3245ZM39.7763 28.3245H30.6522C30.4607 28.3245 30.3036 28.5278 30.3036 28.7728V31.4629C30.3036 31.7079 30.4607 31.9112 30.6522 31.9112H39.7714C39.9629 31.9112 40.1201 31.7079 40.1201 31.4629V28.7728C40.125 28.5278 39.9679 28.3245 39.7763 28.3245Z" fill="#545454"/>
</svg>
